<svg version="1.1" xmlns="http://www.w3.org/2000/svg">

<symbol id="twitter-icon" viewBox="0 0 50 41"><path d="M0 36.3C0.8 36.4 1.6 36.5 2.5 36.5 7.3 36.5 11.7 34.8 15.2 32.1 10.7 32 6.9 29 5.6 24.9 6.2 25 6.9 25 7.5 25 8.5 25 9.4 24.9 10.3 24.7 5.6 23.7 2 19.5 2 14.5 2 14.5 2 14.4 2 14.4 3.4 15.2 5 15.6 6.7 15.7 3.9 13.8 2.1 10.7 2.1 7.1 2.1 5.2 2.6 3.4 3.5 1.9 8.6 8.1 16.1 12.3 24.7 12.7 24.5 11.9 24.4 11.1 24.4 10.3 24.4 4.6 29 0 34.7 0 37.6 0 40.3 1.2 42.2 3.2 44.5 2.8 46.7 1.9 48.7 0.7 47.9 3.1 46.3 5.2 44.2 6.5 46.2 6.2 48.2 5.6 50.1 4.8 48.7 6.9 47 8.7 44.9 10.2 45 10.6 45 11.1 45 11.5 45 25.2 34.6 41 15.7 41 9.9 41 4.5 39.3 0 36.3L0 36.3Z" id="bird"/></symbol>

<symbol id="facebook-icon" viewBox="0 0 96 96"><path d="M72.1 0L59.6 0C45.6 0 36.6 9.3 36.6 23.7v10.9H24c-1.1 0-2 0.9-2 2v15.8c0 1.1 0.9 2 2 2h12.5v39.9c0 1.1 0.9 2 2 2h16.4c1.1 0 2-0.9 2-2V54.3h14.7c1.1 0 2-0.9 2-2l0-15.8c0-0.5-0.2-1-0.6-1.4 -0.4-0.4-0.9-0.6-1.4-0.6H56.8v-9.2c0-4.4 1.1-6.7 6.8-6.7l8.4 0c1.1 0 2-0.9 2-2V2C74 0.9 73.2 0 72.1 0z"/></symbol>

<symbol id="youtube-icon" viewBox="0 0 90 90"><path d="M70.9 65.8H66l0-2.9c0-1.3 1-2.3 2.3-2.3h0.3c1.3 0 2.3 1 2.3 2.3L70.9 65.8zM52.4 59.7c-1.3 0-2.3 0.8-2.3 1.9V75.5c0 1 1 1.9 2.3 1.9 1.3 0 2.3-0.8 2.3-1.9V61.6C54.7 60.5 53.7 59.7 52.4 59.7zM82.5 51.9v26.5C82.5 84.8 77 90 70.2 90H19.8C13 90 7.5 84.8 7.5 78.4V51.9c0-6.4 5.5-11.6 12.3-11.6H70.2C77 40.3 82.5 45.5 82.5 51.9zM23.1 81.3l0-28 6.3 0v-4.1l-16.7 0v4.1l5.2 0v28H23.1zM41.9 57.5h-5.2v14.9c0 2.2 0.1 3.2 0 3.6 -0.4 1.2-2.3 2.4-3.1 0.1 -0.1-0.4 0-1.6 0-3.6l0-15h-5.2l0 14.8c0 2.3-0.1 4 0 4.7 0.1 1.4 0.1 2.9 1.3 3.8 2.3 1.7 6.8-0.3 8-2.7l0 3.1 4.2 0L41.9 57.5 41.9 57.5zM58.6 74.6L58.6 62.2c0-4.7-3.5-7.6-8.4-3.7l0-9.2 -5.2 0 0 31.9 4.3-0.1 0.4-2C55.1 84.1 58.6 80.6 58.6 74.6zM74.9 73l-3.9 0c0 0.2 0 0.3 0 0.5v2.2c0 1.2-1 2.1-2.1 2.1h-0.8c-1.2 0-2.1-1-2.1-2.1V75.5v-2.4 -3.1h9v-3.4c0-2.5-0.1-4.9-0.3-6.3 -0.6-4.5-6.9-5.2-10.1-2.9 -1 0.7-1.7 1.7-2.2 2.9 -0.4 1.3-0.7 3-0.7 5.3v7.4C61.7 85.3 76.7 83.6 74.9 73zM54.8 32.7c0.3 0.7 0.7 1.2 1.3 1.6 0.6 0.4 1.3 0.6 2.1 0.6 0.8 0 1.4-0.2 2-0.6 0.6-0.4 1.1-1 1.5-1.9l-0.1 2h5.8V9.7H62.8v19.2c0 1-0.9 1.9-1.9 1.9 -1 0-1.9-0.9-1.9-1.9V9.7h-4.8v16.7c0 2.1 0 3.5 0.1 4.3C54.4 31.4 54.6 32.1 54.8 32.7zM37.2 18.8c0-2.4 0.2-4.2 0.6-5.6 0.4-1.3 1.1-2.4 2.1-3.2 1-0.8 2.3-1.2 3.9-1.2 1.3 0 2.5 0.3 3.5 0.8 1 0.5 1.7 1.2 2.2 2 0.5 0.8 0.9 1.7 1.1 2.6 0.2 0.9 0.3 2.2 0.3 4v6.3c0 2.3-0.1 4-0.3 5.1 -0.2 1.1-0.6 2.1-1.1 3 -0.6 0.9-1.3 1.6-2.2 2.1 -0.9 0.4-2 0.7-3.2 0.7 -1.3 0-2.4-0.2-3.4-0.6 -0.9-0.4-1.6-1-2.1-1.7 -0.5-0.8-0.9-1.7-1.1-2.8 -0.2-1.1-0.3-2.7-0.3-4.9L37.2 18.8 37.2 18.8zM41.8 28.6c0 1.4 1 2.5 2.3 2.5 1.3 0 2.3-1.1 2.3-2.5V15.4c0-1.4-1-2.5-2.3-2.5 -1.3 0-2.3 1.1-2.3 2.5V28.6zM25.7 35.2h5.5l0-19 6.5-16.2h-6l-3.4 12.1L24.7 0h-5.9l6.9 16.3L25.7 35.2z"/></symbol>

<symbol id="soundcloud-icon" viewBox="0 0 478 478"><path d="M0 287.1c0 16 7.3 30.4 18.9 40.3v-80.8C7.3 256.4 0 270.9 0 287.1M39 236.1v102c4.7 1.3 9.8 2 14.9 2h5.2V234.2c-1.7-0.1-3.5-0.2-5.3-0.2C48.6 234 43.7 234.7 39 236.1M83.3 242.7c-1.4-0.8-2.8-1.7-4.2-2.4v99.7h20.1V206.6C91.1 216.9 85.5 229.3 83.3 242.7M119.1 187.8v152.2h20V177.9C132.1 180.3 125.4 183.7 119.1 187.8M159.3 173.7v166.3h20.1V174.4c-4.2-0.7-8.3-0.9-12.6-0.9C164.2 173.5 161.7 173.5 159.3 173.7M210.4 185.6c-6.6-3.9-13.6-7-21-9.1v163.5h30.1V173.4C216.2 177.3 213.1 181.3 210.4 185.6M229.5 163.4v176.6h190.4v-0.1c40.1-2.7 58.3-27.5 58.3-57.9 0-32.1-24.3-58.1-56.9-58.1 -8.4 0-15.1 1.8-22.5 4.9 -5.2-50.9-48.5-90.6-101.7-90.6C271.2 138.2 247.5 147.6 229.5 163.4"/></symbol>

<symbol id="rssfeed-icon" viewBox="0 0 98 98"><path d="M12.6 72.4C5.7 72.4 0 78.1 0 85s5.7 12.6 12.6 12.6c7 0 12.6-5.7 12.6-12.6S19.6 72.4 12.6 72.4zM2.1 36.4c-0.5 0-1.1 0.2-1.5 0.6 -0.4 0.4-0.6 0.9-0.6 1.4v16.2c0 1.1 0.8 1.9 1.9 2 21.3 1 38.2 17.8 39.1 39.1 0 1.1 0.9 1.9 2 1.9H59.3c0.5 0 1.1-0.2 1.4-0.6s0.6-0.9 0.6-1.5c-0.5-15.5-6.9-30.2-17.9-41.2C32.3 43.3 17.7 36.9 2.1 36.4zM69.1 28.6C51.1 10.7 27.3 0.5 2.1 0c-0.5 0-1.1 0.2-1.4 0.6C0.3 1 0 1.5 0 2v16.2c0 1.1 0.9 2 2 2 40.6 1 74.5 34.9 75.5 75.5 0 1.1 0.9 1.9 2 1.9h16.2c0.5 0 1.1-0.2 1.4-0.6 0.4-0.4 0.6-0.9 0.6-1.4C97.1 70.3 87 46.5 69.1 28.6z"/></symbol>

<symbol id="reload-icon" viewBox="0 0 29 29"><path d="M14.133,28.265c-7.061,0-12.805-5.75-12.805-12.809c0-7.06,5.744-12.807,12.805-12.807c0.469,0,0.943,0.027,1.414,0.08 v-2.07c0-0.266,0.164-0.508,0.406-0.611c0.252-0.098,0.531-0.043,0.723,0.148l4.537,4.547c0.258,0.258,0.258,0.67,0,0.932 l-4.535,4.557c-0.193,0.188-0.473,0.246-0.725,0.143c-0.242-0.104-0.406-0.344-0.406-0.609V7.47 c-0.469-0.086-0.941-0.125-1.414-0.125c-4.473,0-8.113,3.639-8.113,8.111c0,4.471,3.641,8.113,8.113,8.113s8.111-3.643,8.111-8.113 c0-0.363,0.295-0.66,0.662-0.66h3.369c0.365,0,0.662,0.297,0.662,0.66C26.937,22.515,21.189,28.265,14.133,28.265z"/></symbol>

<symbol id="downarrow-icon" viewBox="0 0 452 452"><path d="M225.923,354.706c-8.098,0-16.195-3.092-22.369-9.263L9.27,151.157c-12.359-12.359-12.359-32.397,0-44.751 c12.354-12.354,32.388-12.354,44.748,0l171.905,171.915l171.906-171.909c12.359-12.354,32.391-12.354,44.744,0 c12.365,12.354,12.365,32.392,0,44.751L248.292,345.449C242.115,351.621,234.018,354.706,225.923,354.706z"/></symbol>

<symbol id="close-icon" viewBox="0 0 349 349"><path d="M336.559,68.611L231.016,174.165l105.543,105.549c15.699,15.705,15.699,41.145,0,56.85 c-7.844,7.844-18.128,11.769-28.407,11.769c-10.296,0-20.581-3.919-28.419-11.769L174.167,231.003L68.609,336.563 c-7.843,7.844-18.128,11.769-28.416,11.769c-10.285,0-20.563-3.919-28.413-11.769c-15.699-15.698-15.699-41.139,0-56.85 l105.54-105.549L11.774,68.611c-15.699-15.699-15.699-41.145,0-56.844c15.696-15.687,41.127-15.687,56.829,0l105.563,105.554 L279.721,11.767c15.705-15.687,41.139-15.687,56.832,0C352.258,27.466,352.258,52.912,336.559,68.611z"/></symbol>

<symbol id="leftarrow-icon" viewBox="0 0 22 22"><path d="M10.544,11.031l6.742-6.742c0.81-0.809,0.81-2.135,0-2.944l-0.737-0.737 c-0.81-0.811-2.135-0.811-2.945,0L4.769,9.443c-0.435,0.434-0.628,1.017-0.597,1.589c-0.031,0.571,0.162,1.154,0.597,1.588 l8.835,8.834c0.81,0.811,2.135,0.811,2.945,0l0.737-0.737c0.81-0.808,0.81-2.134,0-2.943L10.544,11.031z"/></symbol>

<symbol id="email-icon" viewBox="0 0 21 21"><path d="M20.966,4.305c0-0.467-0.38-0.847-0.848-0.847H0.848C0.381,3.458,0,3.838,0,4.305v1.052 c0,0.042,0.004,0.081,0.009,0.115C0.004,5.505,0,5.538,0,5.572v11.09c0,0.467,0.38,0.846,0.848,0.846h19.271 c0.468,0,0.848-0.379,0.848-0.846V5.572c0-0.044-0.005-0.084-0.011-0.121c0.007-0.045,0.011-0.091,0.011-0.136L20.966,4.305 L20.966,4.305z M2.013,5.152h16.888l-8.419,6.1L2.013,5.152z M19.272,7.217v8.598H1.694V7.217l8.297,5.914 c0.289,0.207,0.697,0.205,0.984,0.002L19.272,7.217z"/></symbol>

<symbol id="rightarrow-icon" viewBox="0 0 46 46"><path d="M14.757,46.02c-1.412,0-2.825-0.521-3.929-1.569c-2.282-2.17-2.373-5.78-0.204-8.063l12.758-13.418L10.637,9.645 C8.46,7.37,8.54,3.76,10.816,1.582c2.277-2.178,5.886-2.097,8.063,0.179l16.505,17.253c2.104,2.2,2.108,5.665,0.013,7.872 L18.893,44.247C17.77,45.424,16.267,46.02,14.757,46.02z"/></symbol>

<symbol id="uparrow-icon" viewBox="0 0 316 316"><path d="M308,206.5l-133-133c-5-5-11-7-17-7c-7,0-12,2-17,7L8,206.5c-5,5-8,11-8,17s3,13,8,18 c10,10,24,10,34,0l116-116l116,116c10,10,24,10,34,0S318,216.5,308,206.5z"/></symbol>

<symbol id="search-icon" viewBox="0 0 363 363"><path d="M352.464,302.966l-90.374-90.373c-6.689-6.69-15.414-10.097-24.182-10.238c33.904-50.513,28.561-119.733-16.045-164.339 c-50.688-50.687-133.161-50.687-183.848,0c-50.688,50.687-50.688,133.161,0,183.848c44.606,44.606,113.826,49.95,164.339,16.045 c0.142,8.767,3.548,17.492,10.238,24.182l90.373,90.374c13.669,13.668,35.829,13.668,49.498,0 C366.132,338.795,366.132,316.634,352.464,302.966z M193.579,193.579c-35.091,35.091-92.188,35.091-127.279,0 c-35.091-35.091-35.091-92.188,0-127.279c35.091-35.091,92.188-35.091,127.279,0C228.67,101.39,228.67,158.488,193.579,193.579z"/></symbol>

<symbol id="totop-icon" viewBox="0 0 485 485"><path d="M451.655,414.239H33.048C14.798,414.239,0,428.659,0,446.911c0,18.25,14.798,32.67,33.048,32.67h418.607 c18.249,0,33.047-14.421,33.047-32.67C484.702,428.659,469.904,414.239,451.655,414.239z"/><path d="M267.352,19.192c-13.861-19.657-37.979-17.842-50.001,0C186.867,64.434,91.051,197.139,91.051,197.139 c-7.234,10.19-6.902,23.929,0.811,33.762c7.716,9.834,20.984,13.42,32.602,8.819l73.499-29.111l-9.704,143.854 c-0.53,7.826,2.224,15.52,7.6,21.237c5.376,5.712,12.887,8.936,20.73,8.89h51.525c7.844,0.046,15.354-3.177,20.729-8.89 c5.376-5.718,8.131-13.412,7.601-21.237l-9.704-143.854l73.499,29.111c11.617,4.602,24.886,1.015,32.602-8.819 c7.713-9.833,8.045-23.571,0.812-33.762C393.651,197.139,298.792,63.774,267.352,19.192z"/></symbol>

<symbol id="menu-icon" viewBox="0 0 124 124"><path d="M112,6H12C5.4,6,0,11.4,0,18s5.4,12,12,12h100c6.6,0,12-5.4,12-12S118.6,6,112,6z"/><path d="M112,50H12C5.4,50,0,55.4,0,62c0,6.6,5.4,12,12,12h100c6.6,0,12-5.4,12-12C124,55.4,118.6,50,112,50z"/><path d="M112,94H12c-6.6,0-12,5.4-12,12s5.4,12,12,12h100c6.6,0,12-5.4,12-12S118.6,94,112,94z"/></symbol>

<symbol id="github-icon" viewBox="0 0 90 90"><path d="M65.709,10.5c1.17,2.657,1.928,7.07,0.797,10.301c4.625,3.949,6.215,13.549,3.982,21.394 C77.08,42.698,84.932,41.953,90,43.976c-4.738-0.609-11.209-1.804-17.32-1.388c-1.158,0.079-2.873-0.044-2.789,1.585 c7.074,0.555,14.104,1.16,19.912,2.973c-5.761-0.941-12.754-2.375-19.912-2.574c-2.957,5.835-8.908,8.703-17.123,9.307 c0.883,1.922,2.574,2.653,2.987,5.744c0.616,4.618-0.964,11.381,0.595,14.459c0.748,1.475,1.967,1.514,2.789,2.775 c-2.012,2.381-7-0.268-7.568-2.775c-0.973-4.295,1.482-10.953-1.192-13.865c0.188,4.685-1.108,11.264,0.199,15.449 c0.515,1.646,2.002,2.281,1.593,3.766c-9.352,0.949-5.443-12.104-6.972-19.81c-1.411,0.101-0.791,2.113-0.796,2.972 c-0.04,7.524,1.54,17.844-6.57,16.838c-0.237-1.582,1.088-2.119,1.593-3.563c1.479-4.233-0.277-10.542,0.401-15.651 c-3.095,2.334,0.325,10.48-1.593,14.657c-1.105,2.404-4.666,3.45-7.367,2.377c0.352-1.79,2.2-1.501,2.984-3.169 c1.096-2.324,0.008-5.674,0.399-9.111c-5.729,1.144-10.173-0.166-12.348-3.764c-0.973-1.615-1.214-3.52-2.39-4.951 c-1.17-1.432-3.04-1.625-3.582-3.563c7.095-1.708,7.367,7.302,13.739,7.524c1.954,0.071,2.97-0.563,4.778-0.988 c0.506-2.272,1.589-3.967,3.186-5.153c-7.929-1.085-14.477-3.554-17.522-9.504c-7.208,0.354-13.804,1.317-19.913,2.771 c5.545-2.014,12.384-2.736,19.715-2.973c-0.432-2.596-4.219-1.882-6.57-1.782C8.973,42.781,3.473,43.324,0,43.976 c5.034-1.795,12.098-1.571,18.918-1.585c-2.086-6.54-1.363-16.929,3.186-20.798C20.815,18.344,21.215,13.03,22.9,10.5 c5.079,0.228,8.159,2.443,11.35,4.557c3.957-1.125,8.118-1.685,13.54-1.387c2.28,0.126,4.651,1.151,6.369,0.989 c1.685-0.158,3.542-2.049,5.178-2.771C61.468,10.947,63.271,10.588,65.709,10.5z"/></symbol>

<symbol id="new-icon"  viewBox="0 0 23.429 23.429">
<polygon points="16.946,0.643 5.019,0.643 0,5.132 0,22.726 11.935,22.726 11.935,21.146 1.777,21.146 1.777,6.852 6.926,6.852 6.926,2.221 15.169,2.221 15.169,7.111 16.946,7.111"/>
<polygon points="14.438,14.372 14.438,9.495 18.224,9.495 18.224,14.372 23.429,14.372 23.429,17.909 18.224,17.909 18.224,22.786 14.438,22.786 14.438,17.909 9.242,17.909 9.242,14.372"/>
</symbol>

<symbol id="config-icon" viewBox="0 0 268.8 268.8"><path d="M267.9 119.5c-0.4-3.8-4.8-6.6-8.6-6.6 -12.3 0-23.2-7.2-27.8-18.4 -4.7-11.5-1.7-24.8 7.5-33.2 2.9-2.6 3.2-7.1 0.8-10.1 -6.3-8-13.5-15.2-21.3-21.5 -3.1-2.5-7.6-2.1-10.2 0.8 -8 8.9-22.4 12.2-33.5 7.5 -11.6-4.9-18.9-16.6-18.2-29.2 0.2-4-2.7-7.4-6.6-7.8 -10-1.2-20.2-1.2-30.2-0.1 -3.9 0.4-6.8 3.8-6.7 7.7 0.4 12.5-6.9 24-18.4 28.7 -11 4.5-25.3 1.2-33.3-7.6 -2.6-2.9-7.1-3.3-10.1-0.9 -8.1 6.3-15.4 13.6-21.7 21.5 -2.5 3.1-2.1 7.6 0.8 10.2 9.4 8.5 12.4 21.9 7.5 33.5 -4.6 11-16.1 18.2-29.2 18.2 -4.3-0.1-7.3 2.7-7.8 6.6 -1.2 10.1-1.2 20.4-0.1 30.6 0.4 3.8 5 6.6 8.8 6.6 11.7-0.3 22.9 6.9 27.7 18.4 4.7 11.5 1.7 24.8-7.5 33.2 -2.9 2.6-3.2 7.1-0.8 10.1 6.2 8 13.4 15.2 21.3 21.5 3.1 2.5 7.6 2.1 10.2-0.8 8-8.9 22.4-12.2 33.5-7.5 11.6 4.9 18.9 16.6 18.2 29.2 -0.2 4 2.7 7.4 6.6 7.9 5.1 0.6 10.3 0.9 15.5 0.9 4.9 0 9.8-0.3 14.8-0.8 3.9-0.4 6.8-3.8 6.7-7.7 -0.5-12.5 6.9-24 18.4-28.7 11.1-4.5 25.3-1.2 33.3 7.6 2.7 2.9 7 3.2 10.1 0.8 8-6.3 15.3-13.5 21.7-21.5 2.5-3.1 2.1-7.6-0.8-10.2 -9.4-8.5-12.4-21.9-7.5-33.5 4.6-10.9 15.6-18.2 27.5-18.2l1.7 0c3.9 0.3 7.4-2.7 7.9-6.6C269 139.9 269.1 129.6 267.9 119.5zM134.6 179.5c-24.7 0-44.8-20.1-44.8-44.8 0-24.7 20.1-44.8 44.8-44.8 24.7 0 44.8 20.1 44.8 44.8C179.4 159.4 159.3 179.5 134.6 179.5z"/></symbol>

<symbol id="delete-icon" viewBox="0 0 774.3 774.3"><path d="M640.4 91.2H537V24C537 10.5 526.1 0 512.5 0c-1.3 0-2.2 0.4-2.6 0.9C509.5 0.4 508.6 0 508.2 0H265.2h-1.7 -1.7c-13.5 0-24 10.5-24 24v67.2H133.9c-29.7 0-52.8 23.1-52.8 52.8v38.4 48h45.8v491.6c0 29.7 22.7 52.3 52.3 52.3h415.7c29.7 0 52.8-22.7 52.8-52.3v-491.6h45.4v-48 -38.4C693.1 114.3 670 91.2 640.4 91.2zM285.7 48h202.8v43.2h-202.8V48zM599.3 721.9c0 3.1-1.3 4.4-4.4 4.4H179.3c-3.1 0-4.4-1.3-4.4-4.4V230.3h424.4V721.9zM644.7 182.3H129.6v-38.4c0-3.1 1.3-4.8 4.4-4.8H640.4c3.1 0 4.4 1.7 4.4 4.8V182.3z"/><rect x="475" y="286.6" width="48.4" height="396.9"/><rect x="363.4" y="286.6" width="48.4" height="396.9"/><rect x="251.7" y="286.6" width="48.4" height="396.9"/></symbol>

</svg>
